{
  "accessors": [
    {
      "bufferView": 2,
      "componentType": 5126,
      "count": 3805,
      "max": [
        3.976287841796875,
        11.161523818969727,
        5.124517917633057
      ],
      "min": [
        -11.347846984863281,
        -0.4713773727416992,
        -5.211710453033447
      ],
      "type": "VEC3"
    },
    {
      "bufferView": 2,
      "byteOffset": 45660,
      "componentType": 5126,
      "count": 3805,
      "max": [
        0.9999886155128479,
        0.9999963641166687,
        0.9997361898422241
      ],
      "min": [
        -0.9991463422775269,
        -1.0,
        -0.9986905455589294
      ],
      "type": "VEC3"
    },
    {
      "bufferView": 1,
      "componentType": 5126,
      "count": 3805,
      "max": [
        0.7723697423934937,
        1.0
      ],
      "min": [
        0.0,
        0.0
      ],
      "type": "VEC2"
    },
    {
      "bufferView": 0,
      "componentType": 5125,
      "count": 18984,
      "type": "SCALAR"
    },
    {
      "bufferView": 2,
      "byteOffset": 91320,
      "componentType": 5126,
      "count": 1404,
      "max": [
        14.181634902954102,
        15.319809913635254,
        1.8726269006729126
      ],
      "min": [
        -21.5377197265625,
        -0.09500503540039063,
        -1.3970452547073364
      ],
      "type": "VEC3"
    },
    {
      "bufferView": 2,
      "byteOffset": 108168,
      "componentType": 5126,
      "count": 1404,
      "max": [
        0.9971031546592712,
        0.9994375109672546,
        0.9998489618301392
      ],
      "min": [
        -0.9974520802497864,
        -0.9998220801353455,
        -0.9997296929359436
      ],
      "type": "VEC3"
    },
    {
      "bufferView": 1,
      "byteOffset": 30440,
      "componentType": 5126,
      "count": 1404,
      "max": [
        1.0,
        1.0
      ],
      "min": [
        0.0,
        0.0
      ],
      "type": "VEC2"
    },
    {
      "bufferView": 0,
      "byteOffset": 75936,
      "componentType": 5125,
      "count": 7920,
      "type": "SCALAR"
    },
    {
      "bufferView": 2,
      "byteOffset": 125016,
      "componentType": 5126,
      "count": 10721,
      "max": [
        12.49226188659668,
        18.512435913085938,
        5.788270473480225
      ],
      "min": [
        -19.84951400756836,
        8.181293487548828,
        -6.19724178314209
      ],
      "type": "VEC3"
    },
    {
      "bufferView": 2,
      "byteOffset": 253668,
      "componentType": 5126,
      "count": 10721,
      "max": [
        0.996297299861908,
        0.9999998807907104,
        0.999824583530426
      ],
      "min": [
        -0.9997767210006714,
        -1.0,
        -0.9999644756317139
      ],
      "type": "VEC3"
    },
    {
      "bufferView": 1,
      "byteOffset": 41672,
      "componentType": 5126,
      "count": 10721,
      "max": [
        0.0,
        0.0
      ],
      "min": [
        0.0,
        0.0
      ],
      "type": "VEC2"
    },
    {
      "bufferView": 0,
      "byteOffset": 107616,
      "componentType": 5125,
      "count": 57204,
      "type": "SCALAR"
    },
    {
      "bufferView": 2,
      "byteOffset": 382320,
      "componentType": 5126,
      "count": 2075,
      "max": [
        9.005785942077637,
        35.21522521972656,
        10.514780044555664
      ],
      "min": [
        -16.470792770385742,
        18.024127960205078,
        -11.58134937286377
      ],
      "type": "VEC3"
    },
    {
      "bufferView": 2,
      "byteOffset": 407220,
      "componentType": 5126,
      "count": 2075,
      "max": [
        0.998884916305542,
        0.9998961687088013,
        0.9991350769996643
      ],
      "min": [
        -0.9990038871765137,
        -0.9999632835388184,
        -0.9984702467918396
      ],
      "type": "VEC3"
    },
    {
      "bufferView": 1,
      "byteOffset": 127440,
      "componentType": 5126,
      "count": 2075,
      "max": [
        0.581061065196991,
        0.8938756585121155
      ],
      "min": [
        0.019033759832382202,
        0.005046486854553223
      ],
      "type": "VEC2"
    },
    {
      "bufferView": 0,
      "byteOffset": 336432,
      "componentType": 5125,
      "count": 8784,
      "type": "SCALAR"
    }
  ],
  "asset": {
    "extras": {
      "author": "sk7689458 (https://sketchfab.com/sk7689458)",
      "license": "CC-BY-4.0 (http://creativecommons.org/licenses/by/4.0/)",
      "source": "https://sketchfab.com/3d-models/bringing-your-favorite-cartoon-character-to-life-d4f8ebc2ffc34d3699be5cd7b61b5a30",
      "title": "Bringing Your Favorite Cartoon Character to Life"
    },
    "generator": "Sketchfab-16.14.0",
    "version": "2.0"
  },
  "bufferViews": [
    {
      "buffer": 0,
      "byteLength": 371568,
      "name": "floatBufferViews",
      "target": 34963
    },
    {
      "buffer": 0,
      "byteLength": 144040,
      "byteOffset": 371568,
      "byteStride": 8,
      "name": "floatBufferViews",
      "target": 34962
    },
    {
      "buffer": 0,
      "byteLength": 432120,
      "byteOffset": 515608,
      "byteStride": 12,
      "name": "floatBufferViews",
      "target": 34962
    }
  ],
  "buffers": [
    {
      "byteLength": 947728,
      "uri": "scene.bin"
    }
  ],
  "images": [
    {
      "uri": "textures/material_baseColor.png"
    }
  ],
  "materials": [
    {
      "doubleSided": true,
      "name": "Material.004",
      "pbrMetallicRoughness": {
        "baseColorFactor": [
          0.947307,
          0.89627,
          0.171441,
          1.0
        ],
        "metallicFactor": 0.0
      }
    },
    {
      "doubleSided": true,
      "name": "Material.001",
      "pbrMetallicRoughness": {
        "baseColorFactor": [
          0.904661,
          0.450786,
          0.313989,
          1.0
        ],
        "metallicFactor": 0.0
      }
    },
    {
      "doubleSided": true,
      "name": "Material.003",
      "pbrMetallicRoughness": {
        "baseColorFactor": [
          0.814847,
          0.0544803,
          0.0578054,
          1.0
        ],
        "metallicFactor": 0.0
      }
    },
    {
      "doubleSided": true,
      "emissiveFactor": [
        1.0,
        1.0,
        1.0
      ],
      "emissiveTexture": {
        "index": 0
      },
      "name": "material",
      "pbrMetallicRoughness": {
        "baseColorTexture": {
          "index": 0
        }
      }
    }
  ],
  "meshes": [
    {
      "name": "Object_0",
      "primitives": [
        {
          "attributes": {
            "NORMAL": 1,
            "POSITION": 0,
            "TEXCOORD_0": 2
          },
          "indices": 3,
          "material": 0,
          "mode": 4
        }
      ]
    },
    {
      "name": "Object_1",
      "primitives": [
        {
          "attributes": {
            "NORMAL": 5,
            "POSITION": 4,
            "TEXCOORD_0": 6
          },
          "indices": 7,
          "material": 1,
          "mode": 4
        }
      ]
    },
    {
      "name": "Object_2",
      "primitives": [
        {
          "attributes": {
            "NORMAL": 9,
            "POSITION": 8,
            "TEXCOORD_0": 10
          },
          "indices": 11,
          "material": 2,
          "mode": 4
        }
      ]
    },
    {
      "name": "Object_3",
      "primitives": [
        {
          "attributes": {
            "NORMAL": 13,
            "POSITION": 12,
            "TEXCOORD_0": 14
          },
          "indices": 15,
          "material": 3,
          "mode": 4
        }
      ]
    }
  ],
  "nodes": [
    {
      "children": [
        1
      ],
      "matrix": [
        1.0,
        0.0,
        0.0,
        0.0,
        0.0,
        2.220446049250313e-16,
        -1.0,
        0.0,
        0.0,
        1.0,
        2.220446049250313e-16,
        0.0,
        0.0,
        0.0,
        0.0,
        1.0
      ],
      "name": "Sketchfab_model"
    },
    {
      "children": [
        2
      ],
      "name": "root"
    },
    {
      "children": [
        3
      ],
      "matrix": [
        1.0,
        0.0,
        0.0,
        0.0,
        0.0,
        2.220446049250313e-16,
        1.0,
        0.0,
        0.0,
        -1.0,
        2.220446049250313e-16,
        0.0,
        0.0,
        0.0,
        0.0,
        1.0
      ],
      "name": "GLTF_SceneRootNode"
    },
    {
      "children": [
        4
      ],
      "matrix": [
        0.003822576169830485,
        0.0,
        0.2562083367733956,
        0.0,
        -0.0,
        0.25623682141304016,
        0.0,
        0.0,
        -0.2562083367733956,
        0.0,
        0.003822576169830485,
        0.0,
        0.0,
        0.11174201965332031,
        0.9347710609436035,
        1.0
      ],
      "name": "Icosphere.004_19_1"
    },
    {
      "children": [
        5,
        6,
        7,
        8
      ],
      "name": "Object_43_0"
    },
    {
      "mesh": 0,
      "name": "Object_5"
    },
    {
      "mesh": 1,
      "name": "Object_6"
    },
    {
      "mesh": 2,
      "name": "Object_7"
    },
    {
      "mesh": 3,
      "name": "Object_8"
    }
  ],
  "samplers": [
    {
      "magFilter": 9729,
      "minFilter": 9987,
      "wrapS": 10497,
      "wrapT": 10497
    }
  ],
  "scene": 0,
  "scenes": [
    {
      "name": "Sketchfab_Scene",
      "nodes": [
        0
      ]
    }
  ],
  "textures": [
    {
      "sampler": 0,
      "source": 0
    }
  ]
}
